<svg width="295" height="44" viewBox="0 0 295 44" fill="none" xmlns="http://www.w3.org/2000/svg">
<path d="M12.7925 34H0.912676V0.487861H12.8906C16.2615 0.487861 19.1633 1.15876 21.5959 2.50055C24.0286 3.83144 25.8995 5.74595 27.2086 8.24409C28.5286 10.7422 29.1885 13.7313 29.1885 17.2112C29.1885 20.7021 28.5286 23.702 27.2086 26.211C25.8995 28.7201 24.0177 30.6455 21.5632 31.9873C19.1196 33.3291 16.196 34 12.7925 34ZM7.99801 27.9292H12.4979C14.5924 27.9292 16.3542 27.5583 17.7833 26.8165C19.2233 26.0638 20.3032 24.902 21.0232 23.3311C21.7541 21.7493 22.1196 19.7093 22.1196 17.2112C22.1196 14.7349 21.7541 12.7113 21.0232 11.1404C20.3032 9.56952 19.2287 8.41318 17.7997 7.67137C16.3706 6.92957 14.6088 6.55866 12.5143 6.55866H7.99801V27.9292ZM45.7605 34.4909C43.1751 34.4909 40.9497 33.9673 39.0843 32.92C37.2298 31.8619 35.8007 30.3673 34.7971 28.4365C33.7935 26.4947 33.2917 24.1984 33.2917 21.5475C33.2917 18.9621 33.7935 16.693 34.7971 14.7403C35.8007 12.7876 37.2134 11.2659 39.0352 10.175C40.8679 9.08407 43.0169 8.53863 45.4823 8.53863C47.1405 8.53863 48.6841 8.8059 50.1132 9.34043C51.5531 9.86406 52.8077 10.655 53.8767 11.7131C54.9567 12.7713 55.7967 14.1022 56.3967 15.7058C56.9967 17.2985 57.2967 19.1639 57.2967 21.302V23.2166H36.0734V18.8966H50.735C50.735 17.893 50.5168 17.0039 50.0804 16.2294C49.6441 15.4549 49.0386 14.8494 48.2641 14.4131C47.5005 13.9658 46.6114 13.7422 45.5969 13.7422C44.5387 13.7422 43.6006 13.9876 42.7824 14.4785C41.9751 14.9585 41.3424 15.6076 40.8842 16.4258C40.4261 17.233 40.1915 18.133 40.1806 19.1257V23.2329C40.1806 24.4765 40.4097 25.5511 40.8679 26.4565C41.337 27.3619 41.997 28.0601 42.8478 28.551C43.6987 29.0419 44.7078 29.2874 45.8751 29.2874C46.6496 29.2874 47.3587 29.1783 48.0023 28.9601C48.6459 28.7419 49.1968 28.4146 49.655 27.9783C50.1132 27.5419 50.4623 27.0074 50.7023 26.3747L57.1494 26.8001C56.8221 28.3492 56.1513 29.7019 55.1367 30.8582C54.1331 32.0037 52.8349 32.8982 51.2422 33.5418C49.6605 34.1745 47.8332 34.4909 45.7605 34.4909ZM84.603 8.8659L75.8159 34H67.9615L59.1744 8.8659H66.5379L71.7578 26.8492H72.0196L77.2232 8.8659H84.603Z" fill="white"/>
<path d="M117.87 12.2204H110.703C110.572 11.2931 110.304 10.4695 109.901 9.74952C109.497 9.01862 108.979 8.39681 108.346 7.8841C107.714 7.37138 106.983 6.97866 106.154 6.70593C105.335 6.43321 104.446 6.29685 103.486 6.29685C101.752 6.29685 100.241 6.72775 98.9537 7.58955C97.6664 8.44045 96.6683 9.68406 95.9592 11.3204C95.2501 12.9458 94.8956 14.9203 94.8956 17.2439C94.8956 19.633 95.2501 21.6402 95.9592 23.2656C96.6792 24.8911 97.6828 26.1183 98.97 26.9474C100.257 27.7765 101.746 28.191 103.437 28.191C104.386 28.191 105.264 28.0656 106.072 27.8147C106.89 27.5637 107.615 27.1983 108.248 26.7183C108.881 26.2274 109.404 25.6329 109.819 24.9347C110.244 24.2365 110.539 23.4402 110.703 22.5457L117.87 22.5784C117.684 24.1165 117.221 25.6001 116.479 27.0292C115.748 28.4474 114.761 29.7183 113.517 30.8419C112.284 31.9546 110.812 32.8382 109.099 33.4927C107.397 34.1364 105.472 34.4582 103.323 34.4582C100.334 34.4582 97.661 33.7818 95.3046 32.4291C92.9592 31.0764 91.1047 29.1183 89.7411 26.5547C88.3884 23.9911 87.7121 20.8875 87.7121 17.2439C87.7121 13.5894 88.3993 10.4804 89.7738 7.91682C91.1484 5.35323 93.0138 3.40054 95.3701 2.05874C97.7264 0.70604 100.377 0.0296873 103.323 0.0296873C105.264 0.0296873 107.064 0.30241 108.723 0.847855C110.392 1.3933 111.87 2.18965 113.157 3.2369C114.444 4.27325 115.492 5.54414 116.299 7.04956C117.117 8.55499 117.641 10.2786 117.87 12.2204ZM138.938 23.2984V8.8659H145.908V34H139.216V29.4346H138.954C138.387 30.9073 137.443 32.0909 136.123 32.9855C134.814 33.88 133.216 34.3273 131.329 34.3273C129.649 34.3273 128.17 33.9455 126.894 33.1818C125.618 32.4182 124.62 31.3328 123.9 29.9255C123.191 28.5183 122.831 26.8329 122.82 24.8693V8.8659H129.79V23.6256C129.801 25.1092 130.199 26.282 130.985 27.1438C131.77 28.0056 132.823 28.4365 134.143 28.4365C134.983 28.4365 135.768 28.2456 136.499 27.8637C137.23 27.471 137.819 26.8929 138.267 26.1292C138.725 25.3656 138.948 24.422 138.938 23.2984ZM151.484 34V8.8659H158.242V13.2513H158.504C158.962 11.6913 159.731 10.5131 160.811 9.71679C161.891 8.90953 163.135 8.5059 164.542 8.5059C164.891 8.5059 165.268 8.52772 165.671 8.57135C166.075 8.61499 166.429 8.67499 166.735 8.75135V14.9367C166.407 14.8385 165.955 14.7512 165.377 14.6749C164.798 14.5985 164.269 14.5603 163.789 14.5603C162.764 14.5603 161.848 14.784 161.04 15.2312C160.244 15.6676 159.611 16.2785 159.142 17.0639C158.684 17.8494 158.455 18.7548 158.455 19.7803V34H151.484ZM170.339 34V8.8659H177.097V13.2513H177.359C177.817 11.6913 178.586 10.5131 179.666 9.71679C180.746 8.90953 181.989 8.5059 183.397 8.5059C183.746 8.5059 184.122 8.52772 184.526 8.57135C184.929 8.61499 185.284 8.67499 185.589 8.75135V14.9367C185.262 14.8385 184.809 14.7512 184.231 14.6749C183.653 14.5985 183.124 14.5603 182.644 14.5603C181.619 14.5603 180.702 14.784 179.895 15.2312C179.099 15.6676 178.466 16.2785 177.997 17.0639C177.539 17.8494 177.31 18.7548 177.31 19.7803V34H170.339ZM199.478 34.4909C196.892 34.4909 194.667 33.9673 192.802 32.92C190.947 31.8619 189.518 30.3673 188.514 28.4365C187.511 26.4947 187.009 24.1984 187.009 21.5475C187.009 18.9621 187.511 16.693 188.514 14.7403C189.518 12.7876 190.931 11.2659 192.752 10.175C194.585 9.08407 196.734 8.53863 199.2 8.53863C200.858 8.53863 202.401 8.8059 203.83 9.34043C205.27 9.86406 206.525 10.655 207.594 11.7131C208.674 12.7713 209.514 14.1022 210.114 15.7058C210.714 17.2985 211.014 19.1639 211.014 21.302V23.2166H189.791V18.8966H204.452C204.452 17.893 204.234 17.0039 203.798 16.2294C203.361 15.4549 202.756 14.8494 201.981 14.4131C201.218 13.9658 200.329 13.7422 199.314 13.7422C198.256 13.7422 197.318 13.9876 196.5 14.4785C195.692 14.9585 195.06 15.6076 194.602 16.4258C194.143 17.233 193.909 18.133 193.898 19.1257V23.2329C193.898 24.4765 194.127 25.5511 194.585 26.4565C195.054 27.3619 195.714 28.0601 196.565 28.551C197.416 29.0419 198.425 29.2874 199.592 29.2874C200.367 29.2874 201.076 29.1783 201.72 28.9601C202.363 28.7419 202.914 28.4146 203.372 27.9783C203.83 27.5419 204.18 27.0074 204.42 26.3747L210.867 26.8001C210.539 28.3492 209.869 29.7019 208.854 30.8582C207.85 32.0037 206.552 32.8982 204.96 33.5418C203.378 34.1745 201.551 34.4909 199.478 34.4909ZM222.534 19.4693V34H215.563V8.8659H222.207V13.3004H222.501C223.057 11.8386 223.99 10.6822 225.299 9.83133C226.608 8.96953 228.195 8.53863 230.061 8.53863C231.806 8.53863 233.328 8.92044 234.626 9.68406C235.924 10.4477 236.934 11.5386 237.654 12.9567C238.373 14.364 238.733 16.044 238.733 17.9966V34H231.763V19.2403C231.774 17.7021 231.381 16.5021 230.585 15.6403C229.788 14.7676 228.692 14.3313 227.296 14.3313C226.357 14.3313 225.528 14.5331 224.808 14.9367C224.099 15.3403 223.543 15.9294 223.139 16.7039C222.746 17.4676 222.545 18.3894 222.534 19.4693ZM255.584 34.4909C253.009 34.4909 250.795 33.9455 248.94 32.8546C247.097 31.7528 245.678 30.2255 244.686 28.2728C243.704 26.3201 243.213 24.0729 243.213 21.5311C243.213 18.9566 243.709 16.6985 244.702 14.7567C245.706 12.804 247.129 11.2822 248.973 10.1913C250.816 9.08953 253.009 8.53863 255.551 8.53863C257.744 8.53863 259.664 8.9368 261.311 9.73315C262.958 10.5295 264.262 11.6477 265.222 13.0876C266.182 14.5276 266.711 16.2185 266.809 18.1603H260.231C260.045 16.9058 259.554 15.8967 258.758 15.1331C257.973 14.3585 256.942 13.9713 255.665 13.9713C254.585 13.9713 253.642 14.2658 252.835 14.8549C252.038 15.4331 251.416 16.2785 250.969 17.3912C250.522 18.5039 250.298 19.8512 250.298 21.4329C250.298 23.0366 250.516 24.4002 250.953 25.5238C251.4 26.6474 252.027 27.5038 252.835 28.0928C253.642 28.6819 254.585 28.9765 255.665 28.9765C256.462 28.9765 257.176 28.8128 257.809 28.4856C258.453 28.1583 258.982 27.6837 259.396 27.0619C259.822 26.4292 260.1 25.6711 260.231 24.7874H266.809C266.7 26.7074 266.176 28.3983 265.238 29.8601C264.311 31.311 263.029 32.4455 261.393 33.2636C259.756 34.0818 257.82 34.4909 255.584 34.4909ZM275.576 43.4253C274.692 43.4253 273.863 43.3544 273.088 43.2126C272.325 43.0817 271.692 42.9126 271.19 42.7053L272.761 37.5018C273.579 37.7527 274.316 37.889 274.97 37.9108C275.636 37.9327 276.208 37.7799 276.688 37.4527C277.179 37.1254 277.577 36.569 277.883 35.7836L278.292 34.72L269.276 8.8659H276.606L281.81 27.3238H282.072L287.324 8.8659H294.704L284.935 36.7163C284.466 38.069 283.828 39.2472 283.021 40.2508C282.225 41.2653 281.215 42.0453 279.994 42.5908C278.772 43.1471 277.299 43.4253 275.576 43.4253Z" fill="url(#paint0_linear_297_10)"/>
<defs>
<linearGradient id="paint0_linear_297_10" x1="147" y1="-11" x2="147" y2="45" gradientUnits="userSpaceOnUse">
<stop stop-color="#30DAFF"/>
<stop offset="1" stop-color="#3083FF"/>
</linearGradient>
</defs>
</svg>
